<svg class="rich-terminal" viewBox="0 0 1482 928.4" xmlns="http://www.w3.org/2000/svg">
    <!-- Generated with Rich https://www.textualize.io -->
    <style>

    @font-face {
        font-family: "Fira Code";
        src: local("FiraCode-Regular"),
                url("https://cdnjs.cloudflare.com/ajax/libs/firacode/6.2.0/woff2/FiraCode-Regular.woff2") format("woff2"),
                url("https://cdnjs.cloudflare.com/ajax/libs/firacode/6.2.0/woff/FiraCode-Regular.woff") format("woff");
        font-style: normal;
        font-weight: 400;
    }
    @font-face {
        font-family: "Fira Code";
        src: local("FiraCode-Bold"),
                url("https://cdnjs.cloudflare.com/ajax/libs/firacode/6.2.0/woff2/FiraCode-Bold.woff2") format("woff2"),
                url("https://cdnjs.cloudflare.com/ajax/libs/firacode/6.2.0/woff/FiraCode-Bold.woff") format("woff");
        font-style: bold;
        font-weight: 700;
    }

    .terminal-3556560849-matrix {
        font-family: Fira Code, monospace;
        font-size: 20px;
        line-height: 24.4px;
        font-variant-east-asian: full-width;
    }

    .terminal-3556560849-title {
        font-size: 18px;
        font-weight: bold;
        font-family: arial;
    }

    .terminal-3556560849-r1 { fill: #c5c8c6 }
.terminal-3556560849-r2 { fill: #e0e0e0 }
.terminal-3556560849-r3 { fill: #0178d4 }
.terminal-3556560849-r4 { fill: #e0e0e0;font-weight: bold }
.terminal-3556560849-r5 { fill: #7ae998 }
.terminal-3556560849-r6 { fill: #80404d }
.terminal-3556560849-r7 { fill: #252525 }
.terminal-3556560849-r8 { fill: #55c076;font-weight: bold }
.terminal-3556560849-r9 { fill: #93767d;font-weight: bold }
.terminal-3556560849-r10 { fill: #6f6f6f;font-weight: bold }
.terminal-3556560849-r11 { fill: #008139 }
.terminal-3556560849-r12 { fill: #4a0f22 }
.terminal-3556560849-r13 { fill: #151515 }
.terminal-3556560849-r14 { fill: #ffa62b;font-weight: bold }
.terminal-3556560849-r15 { fill: #495259 }
    </style>

    <defs>
    <clipPath id="terminal-3556560849-clip-terminal">
      <rect x="0" y="0" width="1463.0" height="877.4" />
    </clipPath>
    <clipPath id="terminal-3556560849-line-0">
    <rect x="0" y="1.5" width="1464" height="24.65"/>
            </clipPath>
<clipPath id="terminal-3556560849-line-1">
    <rect x="0" y="25.9" width="1464" height="24.65"/>
            </clipPath>
<clipPath id="terminal-3556560849-line-2">
    <rect x="0" y="50.3" width="1464" height="24.65"/>
            </clipPath>
<clipPath id="terminal-3556560849-line-3">
    <rect x="0" y="74.7" width="1464" height="24.65"/>
            </clipPath>
<clipPath id="terminal-3556560849-line-4">
    <rect x="0" y="99.1" width="1464" height="24.65"/>
            </clipPath>
<clipPath id="terminal-3556560849-line-5">
    <rect x="0" y="123.5" width="1464" height="24.65"/>
            </clipPath>
<clipPath id="terminal-3556560849-line-6">
    <rect x="0" y="147.9" width="1464" height="24.65"/>
            </clipPath>
<clipPath id="terminal-3556560849-line-7">
    <rect x="0" y="172.3" width="1464" height="24.65"/>
            </clipPath>
<clipPath id="terminal-3556560849-line-8">
    <rect x="0" y="196.7" width="1464" height="24.65"/>
            </clipPath>
<clipPath id="terminal-3556560849-line-9">
    <rect x="0" y="221.1" width="1464" height="24.65"/>
            </clipPath>
<clipPath id="terminal-3556560849-line-10">
    <rect x="0" y="245.5" width="1464" height="24.65"/>
            </clipPath>
<clipPath id="terminal-3556560849-line-11">
    <rect x="0" y="269.9" width="1464" height="24.65"/>
            </clipPath>
<clipPath id="terminal-3556560849-line-12">
    <rect x="0" y="294.3" width="1464" height="24.65"/>
            </clipPath>
<clipPath id="terminal-3556560849-line-13">
    <rect x="0" y="318.7" width="1464" height="24.65"/>
            </clipPath>
<clipPath id="terminal-3556560849-line-14">
    <rect x="0" y="343.1" width="1464" height="24.65"/>
            </clipPath>
<clipPath id="terminal-3556560849-line-15">
    <rect x="0" y="367.5" width="1464" height="24.65"/>
            </clipPath>
<clipPath id="terminal-3556560849-line-16">
    <rect x="0" y="391.9" width="1464" height="24.65"/>
            </clipPath>
<clipPath id="terminal-3556560849-line-17">
    <rect x="0" y="416.3" width="1464" height="24.65"/>
            </clipPath>
<clipPath id="terminal-3556560849-line-18">
    <rect x="0" y="440.7" width="1464" height="24.65"/>
            </clipPath>
<clipPath id="terminal-3556560849-line-19">
    <rect x="0" y="465.1" width="1464" height="24.65"/>
            </clipPath>
<clipPath id="terminal-3556560849-line-20">
    <rect x="0" y="489.5" width="1464" height="24.65"/>
            </clipPath>
<clipPath id="terminal-3556560849-line-21">
    <rect x="0" y="513.9" width="1464" height="24.65"/>
            </clipPath>
<clipPath id="terminal-3556560849-line-22">
    <rect x="0" y="538.3" width="1464" height="24.65"/>
            </clipPath>
<clipPath id="terminal-3556560849-line-23">
    <rect x="0" y="562.7" width="1464" height="24.65"/>
            </clipPath>
<clipPath id="terminal-3556560849-line-24">
    <rect x="0" y="587.1" width="1464" height="24.65"/>
            </clipPath>
<clipPath id="terminal-3556560849-line-25">
    <rect x="0" y="611.5" width="1464" height="24.65"/>
            </clipPath>
<clipPath id="terminal-3556560849-line-26">
    <rect x="0" y="635.9" width="1464" height="24.65"/>
            </clipPath>
<clipPath id="terminal-3556560849-line-27">
    <rect x="0" y="660.3" width="1464" height="24.65"/>
            </clipPath>
<clipPath id="terminal-3556560849-line-28">
    <rect x="0" y="684.7" width="1464" height="24.65"/>
            </clipPath>
<clipPath id="terminal-3556560849-line-29">
    <rect x="0" y="709.1" width="1464" height="24.65"/>
            </clipPath>
<clipPath id="terminal-3556560849-line-30">
    <rect x="0" y="733.5" width="1464" height="24.65"/>
            </clipPath>
<clipPath id="terminal-3556560849-line-31">
    <rect x="0" y="757.9" width="1464" height="24.65"/>
            </clipPath>
<clipPath id="terminal-3556560849-line-32">
    <rect x="0" y="782.3" width="1464" height="24.65"/>
            </clipPath>
<clipPath id="terminal-3556560849-line-33">
    <rect x="0" y="806.7" width="1464" height="24.65"/>
            </clipPath>
<clipPath id="terminal-3556560849-line-34">
    <rect x="0" y="831.1" width="1464" height="24.65"/>
            </clipPath>
    </defs>

    <rect fill="#292929" stroke="rgba(255,255,255,0.35)" stroke-width="1" x="1" y="1" width="1480" height="926.4" rx="8"/><text class="terminal-3556560849-title" fill="#c5c8c6" text-anchor="middle" x="740" y="27">Transcribe</text>
            <g transform="translate(26,22)">
            <circle cx="0" cy="0" r="7" fill="#ff5f57"/>
            <circle cx="22" cy="0" r="7" fill="#febc2e"/>
            <circle cx="44" cy="0" r="7" fill="#28c840"/>
            </g>
        
    <g transform="translate(9, 41)" clip-path="url(#terminal-3556560849-clip-terminal)">
    <rect fill="#242f38" x="0" y="1.5" width="12.2" height="24.65" shape-rendering="crispEdges"/><rect fill="#242f38" x="12.2" y="1.5" width="12.2" height="24.65" shape-rendering="crispEdges"/><rect fill="#242f38" x="24.4" y="1.5" width="61" height="24.65" shape-rendering="crispEdges"/><rect fill="#242f38" x="85.4" y="1.5" width="12.2" height="24.65" shape-rendering="crispEdges"/><rect fill="#242f38" x="97.6" y="1.5" width="561.2" height="24.65" shape-rendering="crispEdges"/><rect fill="#242f38" x="658.8" y="1.5" width="122" height="24.65" shape-rendering="crispEdges"/><rect fill="#242f38" x="780.8" y="1.5" width="561.2" height="24.65" shape-rendering="crispEdges"/><rect fill="#242f38" x="1342" y="1.5" width="12.2" height="24.65" shape-rendering="crispEdges"/><rect fill="#242f38" x="1354.2" y="1.5" width="0" height="24.65" shape-rendering="crispEdges"/><rect fill="#242f38" x="1354.2" y="1.5" width="97.6" height="24.65" shape-rendering="crispEdges"/><rect fill="#242f38" x="1451.8" y="1.5" width="12.2" height="24.65" shape-rendering="crispEdges"/><rect fill="#1e1e1e" x="0" y="25.9" width="1464" height="24.65" shape-rendering="crispEdges"/><rect fill="#1e1e1e" x="0" y="50.3" width="24.4" height="24.65" shape-rendering="crispEdges"/><rect fill="#1e1e1e" x="24.4" y="50.3" width="12.2" height="24.65" shape-rendering="crispEdges"/><rect fill="#1e1e1e" x="36.6" y="50.3" width="1390.8" height="24.65" shape-rendering="crispEdges"/><rect fill="#1e1e1e" x="1427.4" y="50.3" width="12.2" height="24.65" shape-rendering="crispEdges"/><rect fill="#1e1e1e" x="1439.6" y="50.3" width="24.4" height="24.65" shape-rendering="crispEdges"/><rect fill="#1e1e1e" x="0" y="74.7" width="24.4" height="24.65" shape-rendering="crispEdges"/><rect fill="#1e1e1e" x="24.4" y="74.7" width="12.2" height="24.65" shape-rendering="crispEdges"/><rect fill="#1e1e1e" x="36.6" y="74.7" width="1390.8" height="24.65" shape-rendering="crispEdges"/><rect fill="#1e1e1e" x="1427.4" y="74.7" width="12.2" height="24.65" shape-rendering="crispEdges"/><rect fill="#1e1e1e" x="1439.6" y="74.7" width="24.4" height="24.65" shape-rendering="crispEdges"/><rect fill="#1e1e1e" x="0" y="99.1" width="24.4" height="24.65" shape-rendering="crispEdges"/><rect fill="#1e1e1e" x="24.4" y="99.1" width="12.2" height="24.65" shape-rendering="crispEdges"/><rect fill="#1e1e1e" x="36.6" y="99.1" width="24.4" height="24.65" shape-rendering="crispEdges"/><rect fill="#1e1e1e" x="61" y="99.1" width="109.8" height="24.65" shape-rendering="crispEdges"/><rect fill="#1e1e1e" x="170.8" y="99.1" width="1232.2" height="24.65" shape-rendering="crispEdges"/><rect fill="#1e1e1e" x="1403" y="99.1" width="24.4" height="24.65" shape-rendering="crispEdges"/><rect fill="#1e1e1e" x="1427.4" y="99.1" width="12.2" height="24.65" shape-rendering="crispEdges"/><rect fill="#1e1e1e" x="1439.6" y="99.1" width="24.4" height="24.65" shape-rendering="crispEdges"/><rect fill="#1e1e1e" x="0" y="123.5" width="24.4" height="24.65" shape-rendering="crispEdges"/><rect fill="#1e1e1e" x="24.4" y="123.5" width="12.2" height="24.65" shape-rendering="crispEdges"/><rect fill="#1e1e1e" x="36.6" y="123.5" width="24.4" height="24.65" shape-rendering="crispEdges"/><rect fill="#1e1e1e" x="61" y="123.5" width="1342" height="24.65" shape-rendering="crispEdges"/><rect fill="#1e1e1e" x="1403" y="123.5" width="24.4" height="24.65" shape-rendering="crispEdges"/><rect fill="#1e1e1e" x="1427.4" y="123.5" width="12.2" height="24.65" shape-rendering="crispEdges"/><rect fill="#1e1e1e" x="1439.6" y="123.5" width="24.4" height="24.65" shape-rendering="crispEdges"/><rect fill="#1e1e1e" x="0" y="147.9" width="24.4" height="24.65" shape-rendering="crispEdges"/><rect fill="#1e1e1e" x="24.4" y="147.9" width="12.2" height="24.65" shape-rendering="crispEdges"/><rect fill="#1e1e1e" x="36.6" y="147.9" width="24.4" height="24.65" shape-rendering="crispEdges"/><rect fill="#1e1e1e" x="61" y="147.9" width="146.4" height="24.65" shape-rendering="crispEdges"/><rect fill="#1e1e1e" x="207.4" y="147.9" width="24.4" height="24.65" shape-rendering="crispEdges"/><rect fill="#1e1e1e" x="231.8" y="147.9" width="219.6" height="24.65" shape-rendering="crispEdges"/><rect fill="#1e1e1e" x="451.4" y="147.9" width="951.6" height="24.65" shape-rendering="crispEdges"/><rect fill="#1e1e1e" x="1403" y="147.9" width="24.4" height="24.65" shape-rendering="crispEdges"/><rect fill="#1e1e1e" x="1427.4" y="147.9" width="12.2" height="24.65" shape-rendering="crispEdges"/><rect fill="#1e1e1e" x="1439.6" y="147.9" width="24.4" height="24.65" shape-rendering="crispEdges"/><rect fill="#1e1e1e" x="0" y="172.3" width="24.4" height="24.65" shape-rendering="crispEdges"/><rect fill="#1e1e1e" x="24.4" y="172.3" width="12.2" height="24.65" shape-rendering="crispEdges"/><rect fill="#1e1e1e" x="36.6" y="172.3" width="24.4" height="24.65" shape-rendering="crispEdges"/><rect fill="#1e1e1e" x="61" y="172.3" width="1342" height="24.65" shape-rendering="crispEdges"/><rect fill="#1e1e1e" x="1403" y="172.3" width="24.4" height="24.65" shape-rendering="crispEdges"/><rect fill="#1e1e1e" x="1427.4" y="172.3" width="12.2" height="24.65" shape-rendering="crispEdges"/><rect fill="#1e1e1e" x="1439.6" y="172.3" width="24.4" height="24.65" shape-rendering="crispEdges"/><rect fill="#1e1e1e" x="0" y="196.7" width="24.4" height="24.65" shape-rendering="crispEdges"/><rect fill="#1e1e1e" x="24.4" y="196.7" width="12.2" height="24.65" shape-rendering="crispEdges"/><rect fill="#1e1e1e" x="36.6" y="196.7" width="24.4" height="24.65" shape-rendering="crispEdges"/><rect fill="#1e1e1e" x="61" y="196.7" width="1342" height="24.65" shape-rendering="crispEdges"/><rect fill="#1e1e1e" x="1403" y="196.7" width="24.4" height="24.65" shape-rendering="crispEdges"/><rect fill="#1e1e1e" x="1427.4" y="196.7" width="12.2" height="24.65" shape-rendering="crispEdges"/><rect fill="#1e1e1e" x="1439.6" y="196.7" width="24.4" height="24.65" shape-rendering="crispEdges"/><rect fill="#1e1e1e" x="0" y="221.1" width="24.4" height="24.65" shape-rendering="crispEdges"/><rect fill="#1e1e1e" x="24.4" y="221.1" width="12.2" height="24.65" shape-rendering="crispEdges"/><rect fill="#1e1e1e" x="36.6" y="221.1" width="24.4" height="24.65" shape-rendering="crispEdges"/><rect fill="#1e1e1e" x="61" y="221.1" width="1342" height="24.65" shape-rendering="crispEdges"/><rect fill="#1e1e1e" x="1403" y="221.1" width="24.4" height="24.65" shape-rendering="crispEdges"/><rect fill="#1e1e1e" x="1427.4" y="221.1" width="12.2" height="24.65" shape-rendering="crispEdges"/><rect fill="#1e1e1e" x="1439.6" y="221.1" width="24.4" height="24.65" shape-rendering="crispEdges"/><rect fill="#1e1e1e" x="0" y="245.5" width="24.4" height="24.65" shape-rendering="crispEdges"/><rect fill="#1e1e1e" x="24.4" y="245.5" width="12.2" height="24.65" shape-rendering="crispEdges"/><rect fill="#1e1e1e" x="36.6" y="245.5" width="24.4" height="24.65" shape-rendering="crispEdges"/><rect fill="#1e1e1e" x="61" y="245.5" width="1342" height="24.65" shape-rendering="crispEdges"/><rect fill="#1e1e1e" x="1403" y="245.5" width="24.4" height="24.65" shape-rendering="crispEdges"/><rect fill="#1e1e1e" x="1427.4" y="245.5" width="12.2" height="24.65" shape-rendering="crispEdges"/><rect fill="#1e1e1e" x="1439.6" y="245.5" width="24.4" height="24.65" shape-rendering="crispEdges"/><rect fill="#1e1e1e" x="0" y="269.9" width="24.4" height="24.65" shape-rendering="crispEdges"/><rect fill="#1e1e1e" x="24.4" y="269.9" width="12.2" height="24.65" shape-rendering="crispEdges"/><rect fill="#1e1e1e" x="36.6" y="269.9" width="24.4" height="24.65" shape-rendering="crispEdges"/><rect fill="#1e1e1e" x="61" y="269.9" width="1342" height="24.65" shape-rendering="crispEdges"/><rect fill="#1e1e1e" x="1403" y="269.9" width="24.4" height="24.65" shape-rendering="crispEdges"/><rect fill="#1e1e1e" x="1427.4" y="269.9" width="12.2" height="24.65" shape-rendering="crispEdges"/><rect fill="#1e1e1e" x="1439.6" y="269.9" width="24.4" height="24.65" shape-rendering="crispEdges"/><rect fill="#1e1e1e" x="0" y="294.3" width="24.4" height="24.65" shape-rendering="crispEdges"/><rect fill="#1e1e1e" x="24.4" y="294.3" width="12.2" height="24.65" shape-rendering="crispEdges"/><rect fill="#1e1e1e" x="36.6" y="294.3" width="24.4" height="24.65" shape-rendering="crispEdges"/><rect fill="#1e1e1e" x="61" y="294.3" width="1342" height="24.65" shape-rendering="crispEdges"/><rect fill="#1e1e1e" x="1403" y="294.3" width="24.4" height="24.65" shape-rendering="crispEdges"/><rect fill="#1e1e1e" x="1427.4" y="294.3" width="12.2" height="24.65" shape-rendering="crispEdges"/><rect fill="#1e1e1e" x="1439.6" y="294.3" width="24.4" height="24.65" shape-rendering="crispEdges"/><rect fill="#1e1e1e" x="0" y="318.7" width="24.4" height="24.65" shape-rendering="crispEdges"/><rect fill="#1e1e1e" x="24.4" y="318.7" width="12.2" height="24.65" shape-rendering="crispEdges"/><rect fill="#1e1e1e" x="36.6" y="318.7" width="24.4" height="24.65" shape-rendering="crispEdges"/><rect fill="#1e1e1e" x="61" y="318.7" width="1342" height="24.65" shape-rendering="crispEdges"/><rect fill="#1e1e1e" x="1403" y="318.7" width="24.4" height="24.65" shape-rendering="crispEdges"/><rect fill="#1e1e1e" x="1427.4" y="318.7" width="12.2" height="24.65" shape-rendering="crispEdges"/><rect fill="#1e1e1e" x="1439.6" y="318.7" width="24.4" height="24.65" shape-rendering="crispEdges"/><rect fill="#1e1e1e" x="0" y="343.1" width="24.4" height="24.65" shape-rendering="crispEdges"/><rect fill="#1e1e1e" x="24.4" y="343.1" width="12.2" height="24.65" shape-rendering="crispEdges"/><rect fill="#1e1e1e" x="36.6" y="343.1" width="24.4" height="24.65" shape-rendering="crispEdges"/><rect fill="#1e1e1e" x="61" y="343.1" width="1342" height="24.65" shape-rendering="crispEdges"/><rect fill="#1e1e1e" x="1403" y="343.1" width="24.4" height="24.65" shape-rendering="crispEdges"/><rect fill="#1e1e1e" x="1427.4" y="343.1" width="12.2" height="24.65" shape-rendering="crispEdges"/><rect fill="#1e1e1e" x="1439.6" y="343.1" width="24.4" height="24.65" shape-rendering="crispEdges"/><rect fill="#1e1e1e" x="0" y="367.5" width="24.4" height="24.65" shape-rendering="crispEdges"/><rect fill="#1e1e1e" x="24.4" y="367.5" width="12.2" height="24.65" shape-rendering="crispEdges"/><rect fill="#1e1e1e" x="36.6" y="367.5" width="24.4" height="24.65" shape-rendering="crispEdges"/><rect fill="#1e1e1e" x="61" y="367.5" width="1342" height="24.65" shape-rendering="crispEdges"/><rect fill="#1e1e1e" x="1403" y="367.5" width="24.4" height="24.65" shape-rendering="crispEdges"/><rect fill="#1e1e1e" x="1427.4" y="367.5" width="12.2" height="24.65" shape-rendering="crispEdges"/><rect fill="#1e1e1e" x="1439.6" y="367.5" width="24.4" height="24.65" shape-rendering="crispEdges"/><rect fill="#1e1e1e" x="0" y="391.9" width="24.4" height="24.65" shape-rendering="crispEdges"/><rect fill="#1e1e1e" x="24.4" y="391.9" width="12.2" height="24.65" shape-rendering="crispEdges"/><rect fill="#1e1e1e" x="36.6" y="391.9" width="24.4" height="24.65" shape-rendering="crispEdges"/><rect fill="#1e1e1e" x="61" y="391.9" width="1342" height="24.65" shape-rendering="crispEdges"/><rect fill="#1e1e1e" x="1403" y="391.9" width="24.4" height="24.65" shape-rendering="crispEdges"/><rect fill="#1e1e1e" x="1427.4" y="391.9" width="12.2" height="24.65" shape-rendering="crispEdges"/><rect fill="#1e1e1e" x="1439.6" y="391.9" width="24.4" height="24.65" shape-rendering="crispEdges"/><rect fill="#1e1e1e" x="0" y="416.3" width="24.4" height="24.65" shape-rendering="crispEdges"/><rect fill="#1e1e1e" x="24.4" y="416.3" width="12.2" height="24.65" shape-rendering="crispEdges"/><rect fill="#1e1e1e" x="36.6" y="416.3" width="24.4" height="24.65" shape-rendering="crispEdges"/><rect fill="#1e1e1e" x="61" y="416.3" width="1342" height="24.65" shape-rendering="crispEdges"/><rect fill="#1e1e1e" x="1403" y="416.3" width="24.4" height="24.65" shape-rendering="crispEdges"/><rect fill="#1e1e1e" x="1427.4" y="416.3" width="12.2" height="24.65" shape-rendering="crispEdges"/><rect fill="#1e1e1e" x="1439.6" y="416.3" width="24.4" height="24.65" shape-rendering="crispEdges"/><rect fill="#1e1e1e" x="0" y="440.7" width="24.4" height="24.65" shape-rendering="crispEdges"/><rect fill="#1e1e1e" x="24.4" y="440.7" width="12.2" height="24.65" shape-rendering="crispEdges"/><rect fill="#1e1e1e" x="36.6" y="440.7" width="24.4" height="24.65" shape-rendering="crispEdges"/><rect fill="#1e1e1e" x="61" y="440.7" width="1342" height="24.65" shape-rendering="crispEdges"/><rect fill="#1e1e1e" x="1403" y="440.7" width="24.4" height="24.65" shape-rendering="crispEdges"/><rect fill="#1e1e1e" x="1427.4" y="440.7" width="12.2" height="24.65" shape-rendering="crispEdges"/><rect fill="#1e1e1e" x="1439.6" y="440.7" width="24.4" height="24.65" shape-rendering="crispEdges"/><rect fill="#1e1e1e" x="0" y="465.1" width="24.4" height="24.65" shape-rendering="crispEdges"/><rect fill="#1e1e1e" x="24.4" y="465.1" width="12.2" height="24.65" shape-rendering="crispEdges"/><rect fill="#1e1e1e" x="36.6" y="465.1" width="24.4" height="24.65" shape-rendering="crispEdges"/><rect fill="#55c076" x="61" y="465.1" width="207.4" height="24.65" shape-rendering="crispEdges"/><rect fill="#692c3b" x="268.4" y="465.1" width="195.2" height="24.65" shape-rendering="crispEdges"/><rect fill="#1e1e1e" x="463.6" y="465.1" width="195.2" height="24.65" shape-rendering="crispEdges"/><rect fill="#1e1e1e" x="658.8" y="465.1" width="744.2" height="24.65" shape-rendering="crispEdges"/><rect fill="#1e1e1e" x="1403" y="465.1" width="24.4" height="24.65" shape-rendering="crispEdges"/><rect fill="#1e1e1e" x="1427.4" y="465.1" width="12.2" height="24.65" shape-rendering="crispEdges"/><rect fill="#1e1e1e" x="1439.6" y="465.1" width="24.4" height="24.65" shape-rendering="crispEdges"/><rect fill="#1e1e1e" x="0" y="489.5" width="24.4" height="24.65" shape-rendering="crispEdges"/><rect fill="#1e1e1e" x="24.4" y="489.5" width="12.2" height="24.65" shape-rendering="crispEdges"/><rect fill="#1e1e1e" x="36.6" y="489.5" width="24.4" height="24.65" shape-rendering="crispEdges"/><rect fill="#0b180f" x="61" y="489.5" width="207.4" height="24.65" shape-rendering="crispEdges"/><rect fill="#692c3b" x="268.4" y="489.5" width="195.2" height="24.65" shape-rendering="crispEdges"/><rect fill="#1e1e1e" x="463.6" y="489.5" width="48.8" height="24.65" shape-rendering="crispEdges"/><rect fill="#1e1e1e" x="512.4" y="489.5" width="85.4" height="24.65" shape-rendering="crispEdges"/><rect fill="#1e1e1e" x="597.8" y="489.5" width="61" height="24.65" shape-rendering="crispEdges"/><rect fill="#1e1e1e" x="658.8" y="489.5" width="744.2" height="24.65" shape-rendering="crispEdges"/><rect fill="#1e1e1e" x="1403" y="489.5" width="24.4" height="24.65" shape-rendering="crispEdges"/><rect fill="#1e1e1e" x="1427.4" y="489.5" width="12.2" height="24.65" shape-rendering="crispEdges"/><rect fill="#1e1e1e" x="1439.6" y="489.5" width="24.4" height="24.65" shape-rendering="crispEdges"/><rect fill="#1e1e1e" x="0" y="513.9" width="24.4" height="24.65" shape-rendering="crispEdges"/><rect fill="#1e1e1e" x="24.4" y="513.9" width="12.2" height="24.65" shape-rendering="crispEdges"/><rect fill="#1e1e1e" x="36.6" y="513.9" width="24.4" height="24.65" shape-rendering="crispEdges"/><rect fill="#55c076" x="61" y="513.9" width="207.4" height="24.65" shape-rendering="crispEdges"/><rect fill="#692c3b" x="268.4" y="513.9" width="195.2" height="24.65" shape-rendering="crispEdges"/><rect fill="#1e1e1e" x="463.6" y="513.9" width="195.2" height="24.65" shape-rendering="crispEdges"/><rect fill="#1e1e1e" x="658.8" y="513.9" width="744.2" height="24.65" shape-rendering="crispEdges"/><rect fill="#1e1e1e" x="1403" y="513.9" width="24.4" height="24.65" shape-rendering="crispEdges"/><rect fill="#1e1e1e" x="1427.4" y="513.9" width="12.2" height="24.65" shape-rendering="crispEdges"/><rect fill="#1e1e1e" x="1439.6" y="513.9" width="24.4" height="24.65" shape-rendering="crispEdges"/><rect fill="#1e1e1e" x="0" y="538.3" width="24.4" height="24.65" shape-rendering="crispEdges"/><rect fill="#1e1e1e" x="24.4" y="538.3" width="12.2" height="24.65" shape-rendering="crispEdges"/><rect fill="#1e1e1e" x="36.6" y="538.3" width="24.4" height="24.65" shape-rendering="crispEdges"/><rect fill="#1e1e1e" x="61" y="538.3" width="1342" height="24.65" shape-rendering="crispEdges"/><rect fill="#1e1e1e" x="1403" y="538.3" width="24.4" height="24.65" shape-rendering="crispEdges"/><rect fill="#1e1e1e" x="1427.4" y="538.3" width="12.2" height="24.65" shape-rendering="crispEdges"/><rect fill="#1e1e1e" x="1439.6" y="538.3" width="24.4" height="24.65" shape-rendering="crispEdges"/><rect fill="#1e1e1e" x="0" y="562.7" width="24.4" height="24.65" shape-rendering="crispEdges"/><rect fill="#1e1e1e" x="24.4" y="562.7" width="12.2" height="24.65" shape-rendering="crispEdges"/><rect fill="#1e1e1e" x="36.6" y="562.7" width="24.4" height="24.65" shape-rendering="crispEdges"/><rect fill="#1e1e1e" x="61" y="562.7" width="1342" height="24.65" shape-rendering="crispEdges"/><rect fill="#1e1e1e" x="1403" y="562.7" width="24.4" height="24.65" shape-rendering="crispEdges"/><rect fill="#1e1e1e" x="1427.4" y="562.7" width="12.2" height="24.65" shape-rendering="crispEdges"/><rect fill="#1e1e1e" x="1439.6" y="562.7" width="24.4" height="24.65" shape-rendering="crispEdges"/><rect fill="#1e1e1e" x="0" y="587.1" width="24.4" height="24.65" shape-rendering="crispEdges"/><rect fill="#1e1e1e" x="24.4" y="587.1" width="12.2" height="24.65" shape-rendering="crispEdges"/><rect fill="#1e1e1e" x="36.6" y="587.1" width="24.4" height="24.65" shape-rendering="crispEdges"/><rect fill="#1e1e1e" x="61" y="587.1" width="1342" height="24.65" shape-rendering="crispEdges"/><rect fill="#1e1e1e" x="1403" y="587.1" width="24.4" height="24.65" shape-rendering="crispEdges"/><rect fill="#1e1e1e" x="1427.4" y="587.1" width="12.2" height="24.65" shape-rendering="crispEdges"/><rect fill="#1e1e1e" x="1439.6" y="587.1" width="24.4" height="24.65" shape-rendering="crispEdges"/><rect fill="#1e1e1e" x="0" y="611.5" width="24.4" height="24.65" shape-rendering="crispEdges"/><rect fill="#1e1e1e" x="24.4" y="611.5" width="12.2" height="24.65" shape-rendering="crispEdges"/><rect fill="#1e1e1e" x="36.6" y="611.5" width="24.4" height="24.65" shape-rendering="crispEdges"/><rect fill="#1e1e1e" x="61" y="611.5" width="1342" height="24.65" shape-rendering="crispEdges"/><rect fill="#1e1e1e" x="1403" y="611.5" width="24.4" height="24.65" shape-rendering="crispEdges"/><rect fill="#1e1e1e" x="1427.4" y="611.5" width="12.2" height="24.65" shape-rendering="crispEdges"/><rect fill="#1e1e1e" x="1439.6" y="611.5" width="24.4" height="24.65" shape-rendering="crispEdges"/><rect fill="#1e1e1e" x="0" y="635.9" width="24.4" height="24.65" shape-rendering="crispEdges"/><rect fill="#1e1e1e" x="24.4" y="635.9" width="12.2" height="24.65" shape-rendering="crispEdges"/><rect fill="#1e1e1e" x="36.6" y="635.9" width="24.4" height="24.65" shape-rendering="crispEdges"/><rect fill="#1e1e1e" x="61" y="635.9" width="1342" height="24.65" shape-rendering="crispEdges"/><rect fill="#1e1e1e" x="1403" y="635.9" width="24.4" height="24.65" shape-rendering="crispEdges"/><rect fill="#1e1e1e" x="1427.4" y="635.9" width="12.2" height="24.65" shape-rendering="crispEdges"/><rect fill="#1e1e1e" x="1439.6" y="635.9" width="24.4" height="24.65" shape-rendering="crispEdges"/><rect fill="#1e1e1e" x="0" y="660.3" width="24.4" height="24.65" shape-rendering="crispEdges"/><rect fill="#1e1e1e" x="24.4" y="660.3" width="12.2" height="24.65" shape-rendering="crispEdges"/><rect fill="#1e1e1e" x="36.6" y="660.3" width="24.4" height="24.65" shape-rendering="crispEdges"/><rect fill="#1e1e1e" x="61" y="660.3" width="1342" height="24.65" shape-rendering="crispEdges"/><rect fill="#1e1e1e" x="1403" y="660.3" width="24.4" height="24.65" shape-rendering="crispEdges"/><rect fill="#1e1e1e" x="1427.4" y="660.3" width="12.2" height="24.65" shape-rendering="crispEdges"/><rect fill="#1e1e1e" x="1439.6" y="660.3" width="24.4" height="24.65" shape-rendering="crispEdges"/><rect fill="#1e1e1e" x="0" y="684.7" width="24.4" height="24.65" shape-rendering="crispEdges"/><rect fill="#1e1e1e" x="24.4" y="684.7" width="12.2" height="24.65" shape-rendering="crispEdges"/><rect fill="#1e1e1e" x="36.6" y="684.7" width="24.4" height="24.65" shape-rendering="crispEdges"/><rect fill="#1e1e1e" x="61" y="684.7" width="1342" height="24.65" shape-rendering="crispEdges"/><rect fill="#1e1e1e" x="1403" y="684.7" width="24.4" height="24.65" shape-rendering="crispEdges"/><rect fill="#1e1e1e" x="1427.4" y="684.7" width="12.2" height="24.65" shape-rendering="crispEdges"/><rect fill="#1e1e1e" x="1439.6" y="684.7" width="24.4" height="24.65" shape-rendering="crispEdges"/><rect fill="#1e1e1e" x="0" y="709.1" width="24.4" height="24.65" shape-rendering="crispEdges"/><rect fill="#1e1e1e" x="24.4" y="709.1" width="12.2" height="24.65" shape-rendering="crispEdges"/><rect fill="#1e1e1e" x="36.6" y="709.1" width="24.4" height="24.65" shape-rendering="crispEdges"/><rect fill="#1e1e1e" x="61" y="709.1" width="1342" height="24.65" shape-rendering="crispEdges"/><rect fill="#1e1e1e" x="1403" y="709.1" width="24.4" height="24.65" shape-rendering="crispEdges"/><rect fill="#1e1e1e" x="1427.4" y="709.1" width="12.2" height="24.65" shape-rendering="crispEdges"/><rect fill="#1e1e1e" x="1439.6" y="709.1" width="24.4" height="24.65" shape-rendering="crispEdges"/><rect fill="#1e1e1e" x="0" y="733.5" width="24.4" height="24.65" shape-rendering="crispEdges"/><rect fill="#1e1e1e" x="24.4" y="733.5" width="12.2" height="24.65" shape-rendering="crispEdges"/><rect fill="#1e1e1e" x="36.6" y="733.5" width="24.4" height="24.65" shape-rendering="crispEdges"/><rect fill="#1e1e1e" x="61" y="733.5" width="1342" height="24.65" shape-rendering="crispEdges"/><rect fill="#1e1e1e" x="1403" y="733.5" width="24.4" height="24.65" shape-rendering="crispEdges"/><rect fill="#1e1e1e" x="1427.4" y="733.5" width="12.2" height="24.65" shape-rendering="crispEdges"/><rect fill="#1e1e1e" x="1439.6" y="733.5" width="24.4" height="24.65" shape-rendering="crispEdges"/><rect fill="#1e1e1e" x="0" y="757.9" width="24.4" height="24.65" shape-rendering="crispEdges"/><rect fill="#1e1e1e" x="24.4" y="757.9" width="12.2" height="24.65" shape-rendering="crispEdges"/><rect fill="#1e1e1e" x="36.6" y="757.9" width="24.4" height="24.65" shape-rendering="crispEdges"/><rect fill="#1e1e1e" x="61" y="757.9" width="1342" height="24.65" shape-rendering="crispEdges"/><rect fill="#1e1e1e" x="1403" y="757.9" width="24.4" height="24.65" shape-rendering="crispEdges"/><rect fill="#1e1e1e" x="1427.4" y="757.9" width="12.2" height="24.65" shape-rendering="crispEdges"/><rect fill="#1e1e1e" x="1439.6" y="757.9" width="24.4" height="24.65" shape-rendering="crispEdges"/><rect fill="#1e1e1e" x="0" y="782.3" width="24.4" height="24.65" shape-rendering="crispEdges"/><rect fill="#1e1e1e" x="24.4" y="782.3" width="12.2" height="24.65" shape-rendering="crispEdges"/><rect fill="#1e1e1e" x="36.6" y="782.3" width="1390.8" height="24.65" shape-rendering="crispEdges"/><rect fill="#1e1e1e" x="1427.4" y="782.3" width="12.2" height="24.65" shape-rendering="crispEdges"/><rect fill="#1e1e1e" x="1439.6" y="782.3" width="24.4" height="24.65" shape-rendering="crispEdges"/><rect fill="#1e1e1e" x="0" y="806.7" width="24.4" height="24.65" shape-rendering="crispEdges"/><rect fill="#1e1e1e" x="24.4" y="806.7" width="12.2" height="24.65" shape-rendering="crispEdges"/><rect fill="#1e1e1e" x="36.6" y="806.7" width="1390.8" height="24.65" shape-rendering="crispEdges"/><rect fill="#1e1e1e" x="1427.4" y="806.7" width="12.2" height="24.65" shape-rendering="crispEdges"/><rect fill="#1e1e1e" x="1439.6" y="806.7" width="24.4" height="24.65" shape-rendering="crispEdges"/><rect fill="#1e1e1e" x="0" y="831.1" width="1464" height="24.65" shape-rendering="crispEdges"/><rect fill="#242f38" x="0" y="855.5" width="36.6" height="24.65" shape-rendering="crispEdges"/><rect fill="#242f38" x="36.6" y="855.5" width="207.4" height="24.65" shape-rendering="crispEdges"/><rect fill="#242f38" x="244" y="855.5" width="36.6" height="24.65" shape-rendering="crispEdges"/><rect fill="#242f38" x="280.6" y="855.5" width="158.6" height="24.65" shape-rendering="crispEdges"/><rect fill="#242f38" x="439.2" y="855.5" width="36.6" height="24.65" shape-rendering="crispEdges"/><rect fill="#242f38" x="475.8" y="855.5" width="73.2" height="24.65" shape-rendering="crispEdges"/><rect fill="#242f38" x="549" y="855.5" width="36.6" height="24.65" shape-rendering="crispEdges"/><rect fill="#242f38" x="585.6" y="855.5" width="158.6" height="24.65" shape-rendering="crispEdges"/><rect fill="#242f38" x="744.2" y="855.5" width="36.6" height="24.65" shape-rendering="crispEdges"/><rect fill="#242f38" x="780.8" y="855.5" width="85.4" height="24.65" shape-rendering="crispEdges"/><rect fill="#242f38" x="866.2" y="855.5" width="36.6" height="24.65" shape-rendering="crispEdges"/><rect fill="#242f38" x="902.8" y="855.5" width="61" height="24.65" shape-rendering="crispEdges"/><rect fill="#242f38" x="963.8" y="855.5" width="353.8" height="24.65" shape-rendering="crispEdges"/><rect fill="#242f38" x="1317.6" y="855.5" width="12.2" height="24.65" shape-rendering="crispEdges"/><rect fill="#242f38" x="1329.8" y="855.5" width="24.4" height="24.65" shape-rendering="crispEdges"/><rect fill="#242f38" x="1354.2" y="855.5" width="97.6" height="24.65" shape-rendering="crispEdges"/><rect fill="#242f38" x="1451.8" y="855.5" width="12.2" height="24.65" shape-rendering="crispEdges"/>
    <g class="terminal-3556560849-matrix">
    <text class="terminal-3556560849-r2" x="12.2" y="20" textLength="12.2" clip-path="url(#terminal-3556560849-line-0)">⭘</text><text class="terminal-3556560849-r2" x="658.8" y="20" textLength="122" clip-path="url(#terminal-3556560849-line-0)">Transcribe</text><text class="terminal-3556560849-r1" x="1464" y="20" textLength="12.2" clip-path="url(#terminal-3556560849-line-0)">
</text><text class="terminal-3556560849-r1" x="1464" y="44.4" textLength="12.2" clip-path="url(#terminal-3556560849-line-1)">
</text><text class="terminal-3556560849-r3" x="24.4" y="68.8" textLength="12.2" clip-path="url(#terminal-3556560849-line-2)">┌</text><text class="terminal-3556560849-r3" x="36.6" y="68.8" textLength="1390.8" clip-path="url(#terminal-3556560849-line-2)">──────────────────────────────────────────────────────────────────────────────────────────────────────────────────</text><text class="terminal-3556560849-r3" x="1427.4" y="68.8" textLength="12.2" clip-path="url(#terminal-3556560849-line-2)">┐</text><text class="terminal-3556560849-r1" x="1464" y="68.8" textLength="12.2" clip-path="url(#terminal-3556560849-line-2)">
</text><text class="terminal-3556560849-r3" x="24.4" y="93.2" textLength="12.2" clip-path="url(#terminal-3556560849-line-3)">│</text><text class="terminal-3556560849-r3" x="1427.4" y="93.2" textLength="12.2" clip-path="url(#terminal-3556560849-line-3)">│</text><text class="terminal-3556560849-r1" x="1464" y="93.2" textLength="12.2" clip-path="url(#terminal-3556560849-line-3)">
</text><text class="terminal-3556560849-r3" x="24.4" y="117.6" textLength="12.2" clip-path="url(#terminal-3556560849-line-4)">│</text><text class="terminal-3556560849-r4" x="61" y="117.6" textLength="109.8" clip-path="url(#terminal-3556560849-line-4)">Recording</text><text class="terminal-3556560849-r3" x="1427.4" y="117.6" textLength="12.2" clip-path="url(#terminal-3556560849-line-4)">│</text><text class="terminal-3556560849-r1" x="1464" y="117.6" textLength="12.2" clip-path="url(#terminal-3556560849-line-4)">
</text><text class="terminal-3556560849-r3" x="24.4" y="142" textLength="12.2" clip-path="url(#terminal-3556560849-line-5)">│</text><text class="terminal-3556560849-r3" x="1427.4" y="142" textLength="12.2" clip-path="url(#terminal-3556560849-line-5)">│</text><text class="terminal-3556560849-r1" x="1464" y="142" textLength="12.2" clip-path="url(#terminal-3556560849-line-5)">
</text><text class="terminal-3556560849-r3" x="24.4" y="166.4" textLength="12.2" clip-path="url(#terminal-3556560849-line-6)">│</text><text class="terminal-3556560849-r4" x="61" y="166.4" textLength="146.4" clip-path="url(#terminal-3556560849-line-6)">Status:&#160;Idle</text><text class="terminal-3556560849-r2" x="231.8" y="166.4" textLength="219.6" clip-path="url(#terminal-3556560849-line-6)">Duration:&#160;00:00:00</text><text class="terminal-3556560849-r3" x="1427.4" y="166.4" textLength="12.2" clip-path="url(#terminal-3556560849-line-6)">│</text><text class="terminal-3556560849-r1" x="1464" y="166.4" textLength="12.2" clip-path="url(#terminal-3556560849-line-6)">
</text><text class="terminal-3556560849-r3" x="24.4" y="190.8" textLength="12.2" clip-path="url(#terminal-3556560849-line-7)">│</text><text class="terminal-3556560849-r3" x="1427.4" y="190.8" textLength="12.2" clip-path="url(#terminal-3556560849-line-7)">│</text><text class="terminal-3556560849-r1" x="1464" y="190.8" textLength="12.2" clip-path="url(#terminal-3556560849-line-7)">
</text><text class="terminal-3556560849-r3" x="24.4" y="215.2" textLength="12.2" clip-path="url(#terminal-3556560849-line-8)">│</text><text class="terminal-3556560849-r3" x="1427.4" y="215.2" textLength="12.2" clip-path="url(#terminal-3556560849-line-8)">│</text><text class="terminal-3556560849-r1" x="1464" y="215.2" textLength="12.2" clip-path="url(#terminal-3556560849-line-8)">
</text><text class="terminal-3556560849-r3" x="24.4" y="239.6" textLength="12.2" clip-path="url(#terminal-3556560849-line-9)">│</text><text class="terminal-3556560849-r3" x="1427.4" y="239.6" textLength="12.2" clip-path="url(#terminal-3556560849-line-9)">│</text><text class="terminal-3556560849-r1" x="1464" y="239.6" textLength="12.2" clip-path="url(#terminal-3556560849-line-9)">
</text><text class="terminal-3556560849-r3" x="24.4" y="264" textLength="12.2" clip-path="url(#terminal-3556560849-line-10)">│</text><text class="terminal-3556560849-r3" x="1427.4" y="264" textLength="12.2" clip-path="url(#terminal-3556560849-line-10)">│</text><text class="terminal-3556560849-r1" x="1464" y="264" textLength="12.2" clip-path="url(#terminal-3556560849-line-10)">
</text><text class="terminal-3556560849-r3" x="24.4" y="288.4" textLength="12.2" clip-path="url(#terminal-3556560849-line-11)">│</text><text class="terminal-3556560849-r3" x="1427.4" y="288.4" textLength="12.2" clip-path="url(#terminal-3556560849-line-11)">│</text><text class="terminal-3556560849-r1" x="1464" y="288.4" textLength="12.2" clip-path="url(#terminal-3556560849-line-11)">
</text><text class="terminal-3556560849-r3" x="24.4" y="312.8" textLength="12.2" clip-path="url(#terminal-3556560849-line-12)">│</text><text class="terminal-3556560849-r3" x="1427.4" y="312.8" textLength="12.2" clip-path="url(#terminal-3556560849-line-12)">│</text><text class="terminal-3556560849-r1" x="1464" y="312.8" textLength="12.2" clip-path="url(#terminal-3556560849-line-12)">
</text><text class="terminal-3556560849-r3" x="24.4" y="337.2" textLength="12.2" clip-path="url(#terminal-3556560849-line-13)">│</text><text class="terminal-3556560849-r3" x="1427.4" y="337.2" textLength="12.2" clip-path="url(#terminal-3556560849-line-13)">│</text><text class="terminal-3556560849-r1" x="1464" y="337.2" textLength="12.2" clip-path="url(#terminal-3556560849-line-13)">
</text><text class="terminal-3556560849-r3" x="24.4" y="361.6" textLength="12.2" clip-path="url(#terminal-3556560849-line-14)">│</text><text class="terminal-3556560849-r3" x="1427.4" y="361.6" textLength="12.2" clip-path="url(#terminal-3556560849-line-14)">│</text><text class="terminal-3556560849-r1" x="1464" y="361.6" textLength="12.2" clip-path="url(#terminal-3556560849-line-14)">
</text><text class="terminal-3556560849-r3" x="24.4" y="386" textLength="12.2" clip-path="url(#terminal-3556560849-line-15)">│</text><text class="terminal-3556560849-r3" x="1427.4" y="386" textLength="12.2" clip-path="url(#terminal-3556560849-line-15)">│</text><text class="terminal-3556560849-r1" x="1464" y="386" textLength="12.2" clip-path="url(#terminal-3556560849-line-15)">
</text><text class="terminal-3556560849-r3" x="24.4" y="410.4" textLength="12.2" clip-path="url(#terminal-3556560849-line-16)">│</text><text class="terminal-3556560849-r3" x="1427.4" y="410.4" textLength="12.2" clip-path="url(#terminal-3556560849-line-16)">│</text><text class="terminal-3556560849-r1" x="1464" y="410.4" textLength="12.2" clip-path="url(#terminal-3556560849-line-16)">
</text><text class="terminal-3556560849-r3" x="24.4" y="434.8" textLength="12.2" clip-path="url(#terminal-3556560849-line-17)">│</text><text class="terminal-3556560849-r3" x="1427.4" y="434.8" textLength="12.2" clip-path="url(#terminal-3556560849-line-17)">│</text><text class="terminal-3556560849-r1" x="1464" y="434.8" textLength="12.2" clip-path="url(#terminal-3556560849-line-17)">
</text><text class="terminal-3556560849-r3" x="24.4" y="459.2" textLength="12.2" clip-path="url(#terminal-3556560849-line-18)">│</text><text class="terminal-3556560849-r3" x="1427.4" y="459.2" textLength="12.2" clip-path="url(#terminal-3556560849-line-18)">│</text><text class="terminal-3556560849-r1" x="1464" y="459.2" textLength="12.2" clip-path="url(#terminal-3556560849-line-18)">
</text><text class="terminal-3556560849-r3" x="24.4" y="483.6" textLength="12.2" clip-path="url(#terminal-3556560849-line-19)">│</text><text class="terminal-3556560849-r5" x="61" y="483.6" textLength="207.4" clip-path="url(#terminal-3556560849-line-19)">▔▔▔▔▔▔▔▔▔▔▔▔▔▔▔▔▔</text><text class="terminal-3556560849-r6" x="268.4" y="483.6" textLength="195.2" clip-path="url(#terminal-3556560849-line-19)">▔▔▔▔▔▔▔▔▔▔▔▔▔▔▔▔</text><text class="terminal-3556560849-r7" x="463.6" y="483.6" textLength="195.2" clip-path="url(#terminal-3556560849-line-19)">▔▔▔▔▔▔▔▔▔▔▔▔▔▔▔▔</text><text class="terminal-3556560849-r3" x="1427.4" y="483.6" textLength="12.2" clip-path="url(#terminal-3556560849-line-19)">│</text><text class="terminal-3556560849-r1" x="1464" y="483.6" textLength="12.2" clip-path="url(#terminal-3556560849-line-19)">
</text><text class="terminal-3556560849-r3" x="24.4" y="508" textLength="12.2" clip-path="url(#terminal-3556560849-line-20)">│</text><text class="terminal-3556560849-r8" x="61" y="508" textLength="207.4" clip-path="url(#terminal-3556560849-line-20)">&#160;Start&#160;Recording&#160;</text><text class="terminal-3556560849-r9" x="268.4" y="508" textLength="195.2" clip-path="url(#terminal-3556560849-line-20)">&#160;Stop&#160;Recording&#160;</text><text class="terminal-3556560849-r10" x="512.4" y="508" textLength="85.4" clip-path="url(#terminal-3556560849-line-20)">&#160;Pause&#160;</text><text class="terminal-3556560849-r3" x="1427.4" y="508" textLength="12.2" clip-path="url(#terminal-3556560849-line-20)">│</text><text class="terminal-3556560849-r1" x="1464" y="508" textLength="12.2" clip-path="url(#terminal-3556560849-line-20)">
</text><text class="terminal-3556560849-r3" x="24.4" y="532.4" textLength="12.2" clip-path="url(#terminal-3556560849-line-21)">│</text><text class="terminal-3556560849-r11" x="61" y="532.4" textLength="207.4" clip-path="url(#terminal-3556560849-line-21)">▁▁▁▁▁▁▁▁▁▁▁▁▁▁▁▁▁</text><text class="terminal-3556560849-r12" x="268.4" y="532.4" textLength="195.2" clip-path="url(#terminal-3556560849-line-21)">▁▁▁▁▁▁▁▁▁▁▁▁▁▁▁▁</text><text class="terminal-3556560849-r13" x="463.6" y="532.4" textLength="195.2" clip-path="url(#terminal-3556560849-line-21)">▁▁▁▁▁▁▁▁▁▁▁▁▁▁▁▁</text><text class="terminal-3556560849-r3" x="1427.4" y="532.4" textLength="12.2" clip-path="url(#terminal-3556560849-line-21)">│</text><text class="terminal-3556560849-r1" x="1464" y="532.4" textLength="12.2" clip-path="url(#terminal-3556560849-line-21)">
</text><text class="terminal-3556560849-r3" x="24.4" y="556.8" textLength="12.2" clip-path="url(#terminal-3556560849-line-22)">│</text><text class="terminal-3556560849-r3" x="1427.4" y="556.8" textLength="12.2" clip-path="url(#terminal-3556560849-line-22)">│</text><text class="terminal-3556560849-r1" x="1464" y="556.8" textLength="12.2" clip-path="url(#terminal-3556560849-line-22)">
</text><text class="terminal-3556560849-r3" x="24.4" y="581.2" textLength="12.2" clip-path="url(#terminal-3556560849-line-23)">│</text><text class="terminal-3556560849-r3" x="1427.4" y="581.2" textLength="12.2" clip-path="url(#terminal-3556560849-line-23)">│</text><text class="terminal-3556560849-r1" x="1464" y="581.2" textLength="12.2" clip-path="url(#terminal-3556560849-line-23)">
</text><text class="terminal-3556560849-r3" x="24.4" y="605.6" textLength="12.2" clip-path="url(#terminal-3556560849-line-24)">│</text><text class="terminal-3556560849-r3" x="1427.4" y="605.6" textLength="12.2" clip-path="url(#terminal-3556560849-line-24)">│</text><text class="terminal-3556560849-r1" x="1464" y="605.6" textLength="12.2" clip-path="url(#terminal-3556560849-line-24)">
</text><text class="terminal-3556560849-r3" x="24.4" y="630" textLength="12.2" clip-path="url(#terminal-3556560849-line-25)">│</text><text class="terminal-3556560849-r3" x="1427.4" y="630" textLength="12.2" clip-path="url(#terminal-3556560849-line-25)">│</text><text class="terminal-3556560849-r1" x="1464" y="630" textLength="12.2" clip-path="url(#terminal-3556560849-line-25)">
</text><text class="terminal-3556560849-r3" x="24.4" y="654.4" textLength="12.2" clip-path="url(#terminal-3556560849-line-26)">│</text><text class="terminal-3556560849-r3" x="1427.4" y="654.4" textLength="12.2" clip-path="url(#terminal-3556560849-line-26)">│</text><text class="terminal-3556560849-r1" x="1464" y="654.4" textLength="12.2" clip-path="url(#terminal-3556560849-line-26)">
</text><text class="terminal-3556560849-r3" x="24.4" y="678.8" textLength="12.2" clip-path="url(#terminal-3556560849-line-27)">│</text><text class="terminal-3556560849-r3" x="1427.4" y="678.8" textLength="12.2" clip-path="url(#terminal-3556560849-line-27)">│</text><text class="terminal-3556560849-r1" x="1464" y="678.8" textLength="12.2" clip-path="url(#terminal-3556560849-line-27)">
</text><text class="terminal-3556560849-r3" x="24.4" y="703.2" textLength="12.2" clip-path="url(#terminal-3556560849-line-28)">│</text><text class="terminal-3556560849-r3" x="1427.4" y="703.2" textLength="12.2" clip-path="url(#terminal-3556560849-line-28)">│</text><text class="terminal-3556560849-r1" x="1464" y="703.2" textLength="12.2" clip-path="url(#terminal-3556560849-line-28)">
</text><text class="terminal-3556560849-r3" x="24.4" y="727.6" textLength="12.2" clip-path="url(#terminal-3556560849-line-29)">│</text><text class="terminal-3556560849-r3" x="1427.4" y="727.6" textLength="12.2" clip-path="url(#terminal-3556560849-line-29)">│</text><text class="terminal-3556560849-r1" x="1464" y="727.6" textLength="12.2" clip-path="url(#terminal-3556560849-line-29)">
</text><text class="terminal-3556560849-r3" x="24.4" y="752" textLength="12.2" clip-path="url(#terminal-3556560849-line-30)">│</text><text class="terminal-3556560849-r3" x="1427.4" y="752" textLength="12.2" clip-path="url(#terminal-3556560849-line-30)">│</text><text class="terminal-3556560849-r1" x="1464" y="752" textLength="12.2" clip-path="url(#terminal-3556560849-line-30)">
</text><text class="terminal-3556560849-r3" x="24.4" y="776.4" textLength="12.2" clip-path="url(#terminal-3556560849-line-31)">│</text><text class="terminal-3556560849-r3" x="1427.4" y="776.4" textLength="12.2" clip-path="url(#terminal-3556560849-line-31)">│</text><text class="terminal-3556560849-r1" x="1464" y="776.4" textLength="12.2" clip-path="url(#terminal-3556560849-line-31)">
</text><text class="terminal-3556560849-r3" x="24.4" y="800.8" textLength="12.2" clip-path="url(#terminal-3556560849-line-32)">│</text><text class="terminal-3556560849-r3" x="1427.4" y="800.8" textLength="12.2" clip-path="url(#terminal-3556560849-line-32)">│</text><text class="terminal-3556560849-r1" x="1464" y="800.8" textLength="12.2" clip-path="url(#terminal-3556560849-line-32)">
</text><text class="terminal-3556560849-r3" x="24.4" y="825.2" textLength="12.2" clip-path="url(#terminal-3556560849-line-33)">└</text><text class="terminal-3556560849-r3" x="36.6" y="825.2" textLength="1390.8" clip-path="url(#terminal-3556560849-line-33)">──────────────────────────────────────────────────────────────────────────────────────────────────────────────────</text><text class="terminal-3556560849-r3" x="1427.4" y="825.2" textLength="12.2" clip-path="url(#terminal-3556560849-line-33)">┘</text><text class="terminal-3556560849-r1" x="1464" y="825.2" textLength="12.2" clip-path="url(#terminal-3556560849-line-33)">
</text><text class="terminal-3556560849-r1" x="1464" y="849.6" textLength="12.2" clip-path="url(#terminal-3556560849-line-34)">
</text><text class="terminal-3556560849-r14" x="0" y="874" textLength="36.6" clip-path="url(#terminal-3556560849-line-35)">&#160;r&#160;</text><text class="terminal-3556560849-r2" x="36.6" y="874" textLength="207.4" clip-path="url(#terminal-3556560849-line-35)">Toggle&#160;Recording&#160;</text><text class="terminal-3556560849-r14" x="244" y="874" textLength="36.6" clip-path="url(#terminal-3556560849-line-35)">&#160;a&#160;</text><text class="terminal-3556560849-r2" x="280.6" y="874" textLength="158.6" clip-path="url(#terminal-3556560849-line-35)">Auto&#160;Process&#160;</text><text class="terminal-3556560849-r14" x="439.2" y="874" textLength="36.6" clip-path="url(#terminal-3556560849-line-35)">&#160;f&#160;</text><text class="terminal-3556560849-r2" x="475.8" y="874" textLength="73.2" clip-path="url(#terminal-3556560849-line-35)">Files&#160;</text><text class="terminal-3556560849-r14" x="549" y="874" textLength="36.6" clip-path="url(#terminal-3556560849-line-35)">&#160;p&#160;</text><text class="terminal-3556560849-r2" x="585.6" y="874" textLength="158.6" clip-path="url(#terminal-3556560849-line-35)">Pause/Resume&#160;</text><text class="terminal-3556560849-r14" x="744.2" y="874" textLength="36.6" clip-path="url(#terminal-3556560849-line-35)">&#160;c&#160;</text><text class="terminal-3556560849-r2" x="780.8" y="874" textLength="85.4" clip-path="url(#terminal-3556560849-line-35)">Config&#160;</text><text class="terminal-3556560849-r14" x="866.2" y="874" textLength="36.6" clip-path="url(#terminal-3556560849-line-35)">&#160;q&#160;</text><text class="terminal-3556560849-r2" x="902.8" y="874" textLength="61" clip-path="url(#terminal-3556560849-line-35)">Quit&#160;</text><text class="terminal-3556560849-r15" x="1317.6" y="874" textLength="12.2" clip-path="url(#terminal-3556560849-line-35)">▏</text><text class="terminal-3556560849-r14" x="1329.8" y="874" textLength="24.4" clip-path="url(#terminal-3556560849-line-35)">^p</text><text class="terminal-3556560849-r2" x="1354.2" y="874" textLength="97.6" clip-path="url(#terminal-3556560849-line-35)">&#160;palette</text>
    </g>
    </g>
</svg>
